<svg width="379" height="569" viewBox="0 0 379 569" fill="none" xmlns="http://www.w3.org/2000/svg">
<g opacity="0.6">
<g filter="url(#filter0_f_116_591)">
<ellipse cx="217.98" cy="414.176" rx="71.0189" ry="60.1762" fill="#003CC1" fill-opacity="0.22"/>
</g>
<g filter="url(#filter1_f_116_591)">
<ellipse cx="166.89" cy="420.39" rx="52.8896" ry="57.8869" fill="#B4DBFF" fill-opacity="0.53"/>
</g>
</g>
<g filter="url(#filter2_f_116_591)">
<ellipse cx="188.736" cy="198.806" rx="85.8313" ry="100.687" transform="rotate(22.4116 188.736 198.806)" fill="#E1A8CB" fill-opacity="0.3"/>
</g>
<ellipse cx="170.753" cy="423.917" rx="69.3673" ry="35.482" transform="rotate(37 170.753 423.917)" fill="url(#paint0_linear_116_591)"/>
<ellipse cx="174.489" cy="418.959" rx="69.3673" ry="32.8208" transform="rotate(37 174.489 418.959)" fill="url(#paint1_linear_116_591)"/>
<ellipse cx="174.489" cy="418.959" rx="69.3673" ry="32.8208" transform="rotate(37 174.489 418.959)" fill="url(#paint2_linear_116_591)" fill-opacity="0.2"/>
<g filter="url(#filter3_b_116_591)">
<ellipse cx="220.604" cy="394.966" rx="37.7885" ry="28.6755" transform="rotate(14 220.604 394.966)" fill="url(#paint3_linear_116_591)"/>
<path d="M256.3 403.866C254.476 411.18 248.903 416.898 241.231 420.185C233.559 423.472 223.841 424.296 213.908 421.819C203.976 419.343 195.782 414.053 190.551 407.549C185.32 401.045 183.084 393.38 184.908 386.066C186.732 378.751 192.305 373.033 199.976 369.746C207.648 366.459 217.366 365.636 227.299 368.112C237.232 370.589 245.426 375.878 250.657 382.382C255.887 388.886 258.123 396.551 256.3 403.866Z" stroke="url(#paint4_linear_116_591)" stroke-width="2"/>
</g>
<ellipse cx="151.185" cy="262.627" rx="135.46" ry="19.6319" transform="rotate(14 151.185 262.627)" fill="url(#paint5_linear_116_591)"/>
<ellipse cx="152.816" cy="256.097" rx="135.46" ry="19.6319" transform="rotate(14 152.816 256.097)" fill="url(#paint6_linear_116_591)"/>
<ellipse cx="216.192" cy="128.874" rx="54.8447" ry="28.9656" transform="rotate(-38 216.192 128.874)" fill="url(#paint7_linear_116_591)"/>
<ellipse cx="213.071" cy="124.879" rx="54.8447" ry="26.7932" transform="rotate(-38 213.071 124.879)" fill="url(#paint8_linear_116_591)"/>
<ellipse cx="213.071" cy="124.879" rx="54.8447" ry="26.7932" transform="rotate(-38 213.071 124.879)" fill="url(#paint9_linear_116_591)" fill-opacity="0.2"/>
<g filter="url(#filter4_b_116_591)">
<ellipse cx="136.109" cy="176.47" rx="67.8478" ry="68.9647" transform="rotate(81 136.109 176.47)" fill="url(#paint10_linear_116_591)"/>
<path d="M146.567 242.494C109.478 248.369 74.7546 223.551 68.9816 187.102C63.2086 150.652 88.5632 116.319 125.652 110.445C162.741 104.571 197.464 129.388 203.237 165.838C209.01 202.287 183.656 236.62 146.567 242.494Z" stroke="url(#paint11_linear_116_591)" stroke-width="2"/>
</g>
<defs>
<filter id="filter0_f_116_591" x="56.9609" y="264" width="322.038" height="300.352" filterUnits="userSpaceOnUse" color-interpolation-filters="sRGB">
<feFlood flood-opacity="0" result="BackgroundImageFix"/>
<feBlend mode="normal" in="SourceGraphic" in2="BackgroundImageFix" result="shape"/>
<feGaussianBlur stdDeviation="45" result="effect1_foregroundBlur_116_591"/>
</filter>
<filter id="filter1_f_116_591" x="24" y="272.503" width="285.779" height="295.774" filterUnits="userSpaceOnUse" color-interpolation-filters="sRGB">
<feFlood flood-opacity="0" result="BackgroundImageFix"/>
<feBlend mode="normal" in="SourceGraphic" in2="BackgroundImageFix" result="shape"/>
<feGaussianBlur stdDeviation="45" result="effect1_foregroundBlur_116_591"/>
</filter>
<filter id="filter2_f_116_591" x="0.56958" y="0.112305" width="376.333" height="397.387" filterUnits="userSpaceOnUse" color-interpolation-filters="sRGB">
<feFlood flood-opacity="0" result="BackgroundImageFix"/>
<feBlend mode="normal" in="SourceGraphic" in2="BackgroundImageFix" result="shape"/>
<feGaussianBlur stdDeviation="50" result="effect1_foregroundBlur_116_591"/>
</filter>
<filter id="filter3_b_116_591" x="153.28" y="335.671" width="134.647" height="118.59" filterUnits="userSpaceOnUse" color-interpolation-filters="sRGB">
<feFlood flood-opacity="0" result="BackgroundImageFix"/>
<feGaussianBlur in="BackgroundImageFix" stdDeviation="15"/>
<feComposite in2="SourceAlpha" operator="in" result="effect1_backgroundBlur_116_591"/>
<feBlend mode="normal" in="SourceGraphic" in2="effect1_backgroundBlur_116_591" result="shape"/>
</filter>
<filter id="filter4_b_116_591" x="37.162" y="78.5842" width="197.895" height="195.771" filterUnits="userSpaceOnUse" color-interpolation-filters="sRGB">
<feFlood flood-opacity="0" result="BackgroundImageFix"/>
<feGaussianBlur in="BackgroundImageFix" stdDeviation="15"/>
<feComposite in2="SourceAlpha" operator="in" result="effect1_backgroundBlur_116_591"/>
<feBlend mode="normal" in="SourceGraphic" in2="effect1_backgroundBlur_116_591" result="shape"/>
</filter>
<linearGradient id="paint0_linear_116_591" x1="101.385" y1="423.725" x2="240.12" y2="423.725" gradientUnits="userSpaceOnUse">
<stop stop-color="#DAABFF"/>
<stop offset="0.501383" stop-color="#B272E3"/>
<stop offset="1" stop-color="#9966C0"/>
</linearGradient>
<linearGradient id="paint1_linear_116_591" x1="105.122" y1="418.781" x2="243.856" y2="418.781" gradientUnits="userSpaceOnUse">
<stop stop-color="#DAABFF"/>
<stop offset="0.501383" stop-color="#B272E3"/>
<stop offset="1" stop-color="#9966C0"/>
</linearGradient>
<linearGradient id="paint2_linear_116_591" x1="174.489" y1="386.138" x2="174.489" y2="451.779" gradientUnits="userSpaceOnUse">
<stop stop-color="#AB70D9"/>
<stop offset="1" stop-color="white"/>
</linearGradient>
<linearGradient id="paint3_linear_116_591" x1="183.903" y1="394.966" x2="258.467" y2="395.593" gradientUnits="userSpaceOnUse">
<stop stop-color="#6687FC" stop-opacity="0.25"/>
<stop offset="0.497803" stop-color="#AD81E3" stop-opacity="0.25"/>
<stop offset="1" stop-color="#6687FC" stop-opacity="0.25"/>
</linearGradient>
<linearGradient id="paint4_linear_116_591" x1="227.541" y1="367.142" x2="213.667" y2="422.789" gradientUnits="userSpaceOnUse">
<stop stop-color="white"/>
<stop offset="0.502348" stop-color="#B180D6"/>
<stop offset="1" stop-color="white"/>
</linearGradient>
<linearGradient id="paint5_linear_116_591" x1="15.7254" y1="262.521" x2="286.646" y2="262.521" gradientUnits="userSpaceOnUse">
<stop stop-color="#DAABFF"/>
<stop offset="0.501383" stop-color="#B272E3"/>
<stop offset="1" stop-color="#9966C0"/>
</linearGradient>
<linearGradient id="paint6_linear_116_591" x1="21.2544" y1="256.097" x2="288.047" y2="267.842" gradientUnits="userSpaceOnUse">
<stop stop-color="white"/>
<stop offset="0.28015" stop-color="#DAABFF"/>
<stop offset="0.497803" stop-color="#B272E3"/>
<stop offset="0.777662" stop-color="#9966C0"/>
<stop offset="1" stop-color="white"/>
</linearGradient>
<linearGradient id="paint7_linear_116_591" x1="161.347" y1="128.717" x2="271.036" y2="128.717" gradientUnits="userSpaceOnUse">
<stop stop-color="#DAABFF"/>
<stop offset="0.501383" stop-color="#B272E3"/>
<stop offset="1" stop-color="#9966C0"/>
</linearGradient>
<linearGradient id="paint8_linear_116_591" x1="158.227" y1="124.734" x2="267.916" y2="124.734" gradientUnits="userSpaceOnUse">
<stop stop-color="#DAABFF"/>
<stop offset="0.501383" stop-color="#B272E3"/>
<stop offset="1" stop-color="#9966C0"/>
</linearGradient>
<linearGradient id="paint9_linear_116_591" x1="213.071" y1="98.0859" x2="213.071" y2="151.672" gradientUnits="userSpaceOnUse">
<stop stop-color="#AB70D9"/>
<stop offset="1" stop-color="white"/>
</linearGradient>
<linearGradient id="paint10_linear_116_591" x1="70.2141" y1="176.47" x2="204.096" y2="177.31" gradientUnits="userSpaceOnUse">
<stop stop-color="#6687FC" stop-opacity="0.25"/>
<stop offset="0.497803" stop-color="#AD81E3" stop-opacity="0.25"/>
<stop offset="1" stop-color="#6687FC" stop-opacity="0.25"/>
</linearGradient>
<linearGradient id="paint11_linear_116_591" x1="204.225" y1="165.681" x2="67.9939" y2="187.258" gradientUnits="userSpaceOnUse">
<stop stop-color="white"/>
<stop offset="0.502348" stop-color="#B180D6"/>
<stop offset="1" stop-color="white"/>
</linearGradient>
</defs>
</svg>
