<svg width="135" height="136" viewBox="0 0 135 136" fill="none" xmlns="http://www.w3.org/2000/svg">
<g filter="url(#filter0_b_356_1346)">
<ellipse cx="67.2048" cy="67.9272" rx="75.573" ry="57.348" transform="rotate(-135 67.2048 67.9272)" fill="url(#paint0_linear_356_1346)"/>
<path d="M14.4737 15.1961C25.4027 4.26711 41.1839 0.157695 57.9564 2.4574C74.7298 4.75722 92.4324 13.4667 107.049 28.0831C121.665 42.6995 130.375 60.4022 132.675 77.1755C134.974 93.948 130.865 109.729 119.936 120.658C109.007 131.587 93.2256 135.697 76.4531 133.397C59.6798 131.097 41.9771 122.388 27.3607 107.771C12.7443 93.1548 4.03483 75.4522 1.73501 58.6788C-0.564696 41.9063 3.54472 26.1251 14.4737 15.1961Z" stroke="url(#paint1_linear_356_1346)" stroke-width="2"/>
</g>
<defs>
<filter id="filter0_b_356_1346" x="-29.8809" y="-29.1587" width="194.172" height="194.172" filterUnits="userSpaceOnUse" color-interpolation-filters="sRGB">
<feFlood flood-opacity="0" result="BackgroundImageFix"/>
<feGaussianBlur in="BackgroundImageFix" stdDeviation="15"/>
<feComposite in2="SourceAlpha" operator="in" result="effect1_backgroundBlur_356_1346"/>
<feBlend mode="normal" in="SourceGraphic" in2="effect1_backgroundBlur_356_1346" result="shape"/>
</filter>
<linearGradient id="paint0_linear_356_1346" x1="-6.19346" y1="67.9272" x2="142.928" y2="69.181" gradientUnits="userSpaceOnUse">
<stop stop-color="#6687FC" stop-opacity="0.25"/>
<stop offset="0.497803" stop-color="#AD81E3" stop-opacity="0.25"/>
<stop offset="1" stop-color="#6687FC" stop-opacity="0.25"/>
</linearGradient>
<linearGradient id="paint1_linear_356_1346" x1="26.6536" y1="108.478" x2="107.756" y2="27.376" gradientUnits="userSpaceOnUse">
<stop stop-color="white"/>
<stop offset="0.502348" stop-color="#B180D6"/>
<stop offset="1" stop-color="white"/>
</linearGradient>
</defs>
</svg>
