<svg width="155" height="92" viewBox="0 0 155 92" fill="none" xmlns="http://www.w3.org/2000/svg">
<path d="M3.28468 48.4331C2.21805 66.2054 24.9863 80.4255 46.064 70.8038C67.1418 61.1821 80.3516 43.9519 81.4182 26.1796C82.4848 8.40729 66.2626 1.79994 45.1849 11.4217C24.1072 21.0434 4.35132 30.6608 3.28468 48.4331Z" fill="#D7DFFB"/>
<path d="M11.5135 46.5042C10.5613 62.3709 26.3487 77.6536 44.7074 69.2731C64.1403 59.1827 79.1373 43.7806 80.0896 27.9139C81.0418 12.0472 66.3915 5.48626 48.0327 13.8668C29.674 22.2473 12.4658 30.6375 11.5135 46.5042Z" fill="#BFCCFC"/>
<path d="M20.5512 45.2408C19.1112 58.2405 31.1258 71.4016 46.2115 65.2195C61.2971 59.0374 74.5075 45.1688 75.9474 32.1691C77.3874 19.1694 66.3254 13.6427 51.2398 19.8248C36.1541 26.007 21.9911 32.2411 20.5512 45.2408Z" fill="#A7BAFE"/>
<path d="M27.1 45.419C26.4604 56.0765 36.4514 66.6217 48.1273 61.2918C59.8032 55.9619 69.7042 44.3799 70.3438 33.7224C70.9834 23.0649 62.0368 18.746 50.3609 24.0759C38.685 29.4058 27.7396 34.7615 27.1 45.419Z" fill="#96ADFF"/>
<path d="M32.0552 31.1254L36.2252 45.6754L40.3352 31.1254H46.4852L39.1352 52.4254H33.3152L25.8752 31.1254H32.0552ZM53.9515 41.9554V52.4254H48.1015V31.1254H52.6615L61.2115 41.9554V31.1254H67.0615V52.4254H62.4115L53.9515 41.9554ZM79.9287 52.5754C78.5487 52.5754 77.2287 52.3354 75.9687 51.8554C74.7287 51.3554 73.6287 50.6354 72.6687 49.6954C71.7087 48.7354 70.9487 47.5854 70.3887 46.2454C69.8487 44.8854 69.5787 43.3354 69.5787 41.5954C69.5787 40.0954 69.8587 38.7054 70.4187 37.4254C70.9787 36.1454 71.7487 35.0254 72.7287 34.0654C73.7287 33.0854 74.8887 32.3254 76.2087 31.7854C77.5287 31.2454 78.9587 30.9754 80.4987 30.9754C82.4187 30.9754 84.1587 31.3954 85.7187 32.2354C87.2787 33.0554 88.4387 34.1854 89.1987 35.6254L84.8487 38.9554C84.4287 38.1154 83.7987 37.4454 82.9587 36.9454C82.1187 36.4254 81.2287 36.1654 80.2887 36.1654C79.5887 36.1654 78.9487 36.3054 78.3687 36.5854C77.7887 36.8654 77.2787 37.2554 76.8387 37.7554C76.4187 38.2554 76.0887 38.8554 75.8487 39.5554C75.6287 40.2354 75.5187 40.9854 75.5187 41.8054C75.5187 42.6454 75.6387 43.4054 75.8787 44.0854C76.1187 44.7654 76.4487 45.3554 76.8687 45.8554C77.3087 46.3354 77.8287 46.7154 78.4287 46.9954C79.0287 47.2554 79.6987 47.3854 80.4387 47.3854C81.3787 47.3854 82.2787 47.1554 83.1387 46.6954C83.9987 46.2154 84.7787 45.5454 85.4787 44.6854V50.3854C83.8787 51.8454 82.0287 52.5754 79.9287 52.5754ZM85.1787 45.2854H81.2487V41.0854H90.0087V52.4254H85.1787V45.2854ZM92.8964 52.4254V31.1254H98.7464V47.3254H108.406V52.4254H92.8964ZM110.055 52.4254V36.6454H115.755V52.4254H110.055ZM110.055 35.3254V30.5254H115.755V35.3254H110.055ZM134.509 52.4254H128.809V43.5454C128.809 42.7654 128.629 42.2054 128.269 41.8654C127.929 41.5054 127.529 41.3254 127.069 41.3254C126.749 41.3254 126.409 41.4254 126.049 41.6254C125.689 41.8054 125.359 42.0654 125.059 42.4054C124.759 42.7454 124.519 43.1354 124.339 43.5754V52.4254H118.639V36.6454H123.769V38.9854C124.149 38.4054 124.629 37.9254 125.209 37.5454C125.789 37.1454 126.459 36.8454 127.219 36.6454C127.979 36.4454 128.809 36.3454 129.709 36.3454C130.789 36.3454 131.649 36.5354 132.289 36.9154C132.929 37.2954 133.409 37.7854 133.729 38.3854C134.049 38.9854 134.259 39.6154 134.359 40.2754C134.459 40.9154 134.509 41.5054 134.509 42.0454V52.4254ZM147.682 52.4254L144.112 46.6654L142.972 47.9254V52.4254H137.272V30.5254H142.972V42.4954L147.172 36.6454H153.172L147.742 43.5454L153.712 52.4254H147.682Z" fill="url(#paint0_linear_39_1039)"/>
<defs>
<linearGradient id="paint0_linear_39_1039" x1="30.8114" y1="38.0001" x2="150.212" y2="62.4532" gradientUnits="userSpaceOnUse">
<stop offset="0.0984541" stop-color="#112252"/>
<stop offset="0.639222" stop-color="#9FB4FF"/>
</linearGradient>
</defs>
</svg>
