<svg width="156" height="98" viewBox="0 0 156 98" fill="none" xmlns="http://www.w3.org/2000/svg">
<path d="M3.28468 54.4331C2.21805 72.2054 24.9863 86.4255 46.064 76.8038C67.1418 67.1821 80.3516 49.9519 81.4182 32.1796C82.4848 14.4073 66.2626 7.79994 45.1849 17.4217C24.1072 27.0434 4.35132 36.6608 3.28468 54.4331Z" fill="#D7DFFB"/>
<path d="M11.5135 52.5047C10.5613 68.3714 26.3487 83.6541 44.7074 75.2735C64.1403 65.1831 79.1373 49.7811 80.0896 33.9144C81.0418 18.0477 66.3915 11.4867 48.0327 19.8672C29.674 28.2477 12.4658 36.638 11.5135 52.5047Z" fill="#BFCCFC"/>
<path d="M20.5512 51.2405C19.1112 64.2402 31.1258 77.4014 46.2115 71.2192C61.2971 65.0371 74.5075 51.1685 75.9474 38.1688C77.3874 25.1692 66.3254 19.6425 51.2398 25.8246C36.1541 32.0067 21.9911 38.2409 20.5512 51.2405Z" fill="#A7BAFE"/>
<path d="M27.1 51.4186C26.4604 62.0761 36.4514 72.6213 48.1273 67.2914C59.8032 61.9615 69.7042 50.3795 70.3438 39.7219C70.9834 29.0644 62.0368 24.7455 50.3609 30.0754C38.685 35.4053 27.7396 40.761 27.1 51.4186Z" fill="#96ADFF"/>
<path d="M32.0552 37.1258L36.2252 51.6758L40.3352 37.1258H46.4852L39.1352 58.4258H33.3152L25.8752 37.1258H32.0552ZM53.9515 47.9558V58.4258H48.1015V37.1258H52.6615L61.2115 47.9558V37.1258H67.0615V58.4258H62.4115L53.9515 47.9558ZM79.9287 58.5758C78.5487 58.5758 77.2287 58.3358 75.9687 57.8558C74.7287 57.3558 73.6287 56.6358 72.6687 55.6958C71.7087 54.7358 70.9487 53.5858 70.3887 52.2458C69.8487 50.8858 69.5787 49.3358 69.5787 47.5958C69.5787 46.0958 69.8587 44.7058 70.4187 43.4258C70.9787 42.1458 71.7487 41.0258 72.7287 40.0658C73.7287 39.0858 74.8887 38.3258 76.2087 37.7858C77.5287 37.2458 78.9587 36.9758 80.4987 36.9758C82.4187 36.9758 84.1587 37.3958 85.7187 38.2358C87.2787 39.0558 88.4387 40.1858 89.1987 41.6258L84.8487 44.9558C84.4287 44.1158 83.7987 43.4458 82.9587 42.9458C82.1187 42.4258 81.2287 42.1658 80.2887 42.1658C79.5887 42.1658 78.9487 42.3058 78.3687 42.5858C77.7887 42.8658 77.2787 43.2558 76.8387 43.7558C76.4187 44.2558 76.0887 44.8558 75.8487 45.5558C75.6287 46.2358 75.5187 46.9858 75.5187 47.8058C75.5187 48.6458 75.6387 49.4058 75.8787 50.0858C76.1187 50.7658 76.4487 51.3558 76.8687 51.8558C77.3087 52.3358 77.8287 52.7158 78.4287 52.9958C79.0287 53.2558 79.6987 53.3858 80.4387 53.3858C81.3787 53.3858 82.2787 53.1558 83.1387 52.6958C83.9987 52.2158 84.7787 51.5458 85.4787 50.6858V56.3858C83.8787 57.8458 82.0287 58.5758 79.9287 58.5758ZM85.1787 51.2858H81.2487V47.0858H90.0087V58.4258H85.1787V51.2858Z" fill="#FEFEFF"/>
<path d="M94.4081 58.4258V37.1258H100.258V53.3258H109.918V58.4258H94.4081ZM111.567 58.4258V42.6458H117.267V58.4258H111.567ZM111.567 41.3258V36.5258H117.267V41.3258H111.567ZM136.021 58.4258H130.321V49.5458C130.321 48.7658 130.141 48.2058 129.781 47.8658C129.441 47.5058 129.041 47.3258 128.581 47.3258C128.261 47.3258 127.921 47.4258 127.561 47.6258C127.201 47.8058 126.871 48.0658 126.571 48.4058C126.271 48.7458 126.031 49.1358 125.851 49.5758V58.4258H120.151V42.6458H125.281V44.9858C125.661 44.4058 126.141 43.9258 126.721 43.5458C127.301 43.1458 127.971 42.8458 128.731 42.6458C129.491 42.4458 130.321 42.3458 131.221 42.3458C132.301 42.3458 133.161 42.5358 133.801 42.9158C134.441 43.2958 134.921 43.7858 135.241 44.3858C135.561 44.9858 135.771 45.6158 135.871 46.2758C135.971 46.9158 136.021 47.5058 136.021 48.0458V58.4258ZM149.194 58.4258L145.624 52.6658L144.484 53.9258V58.4258H138.784V36.5258H144.484V48.4958L148.684 42.6458H154.684L149.254 49.5458L155.224 58.4258H149.194Z" fill="#FEFEFF"/>
</svg>
