<svg width="80" height="80" viewBox="0 0 80 80" fill="none" xmlns="http://www.w3.org/2000/svg">
<rect x="0.5" y="0.5" width="79" height="79" rx="7.5" fill="white" fill-opacity="0.05" stroke="url(#paint0_linear_557_1049)"/>
<path d="M55 60C55.7957 60 56.5587 59.6839 57.1213 59.1213C57.6839 58.5587 58 57.7957 58 57V50C58 49.2044 57.6839 48.4413 57.1213 47.8787C56.5587 47.3161 55.7957 47 55 47C52.66 47 50.36 46.64 48.16 45.9C47.634 45.734 47.0726 45.7152 46.5367 45.8456C46.0008 45.9761 45.5108 46.2508 45.12 46.64L42.24 49.52C37.2646 46.8046 33.1754 42.7154 30.46 37.74L33.32 34.88C34.14 34.1 34.44 32.94 34.08 31.82C33.36 29.64 33 27.34 33 25C33 24.2044 32.6839 23.4413 32.1213 22.8787C31.5587 22.3161 30.7956 22 30 22H23C22.2044 22 21.4413 22.3161 20.8787 22.8787C20.3161 23.4413 20 24.2044 20 25C20 44.3 35.7 60 55 60ZM23 24H30C30.2652 24 30.5196 24.1054 30.7071 24.2929C30.8946 24.4804 31 24.7348 31 25C31 27.56 31.4 30.06 32.18 32.44C32.28 32.72 32.26 33.12 31.94 33.44L28 37.36C31.3 43.82 36.14 48.66 42.62 52L46.52 48.06C46.8 47.78 47.18 47.7 47.54 47.8C49.94 48.6 52.44 49 55 49C55.2652 49 55.5196 49.1054 55.7071 49.2929C55.8946 49.4804 56 49.7348 56 50V57C56 57.2652 55.8946 57.5196 55.7071 57.7071C55.5196 57.8946 55.2652 58 55 58C36.8 58 22 43.2 22 25C22 24.7348 22.1054 24.4804 22.2929 24.2929C22.4804 24.1054 22.7348 24 23 24Z" fill="white" fill-opacity="0.8"/>
<defs>
<linearGradient id="paint0_linear_557_1049" x1="1.15108" y1="40" x2="80.0819" y2="40.5036" gradientUnits="userSpaceOnUse">
<stop stop-color="#6687FC"/>
<stop offset="1" stop-color="#CA43AF"/>
</linearGradient>
</defs>
</svg>
