<svg width="80" height="80" viewBox="0 0 80 80" fill="none" xmlns="http://www.w3.org/2000/svg">
<rect x="0.5" y="0.5" width="79" height="79" rx="7.5" fill="white" fill-opacity="0.05" stroke="url(#paint0_linear_557_1047)"/>
<path d="M59.89 21.5296C59.4588 21.1722 58.9388 20.9381 58.3853 20.8522C57.8318 20.7662 57.2654 20.8317 56.746 21.0416L20.912 35.5076C20.333 35.7456 19.84 36.154 19.4985 36.6787C19.157 37.2035 18.9832 37.8196 19.0002 38.4454C19.0171 39.0713 19.2239 39.6771 19.5933 40.1826C19.9626 40.6881 20.477 41.0693 21.068 41.2756L28.8 43.9596L32.99 57.8116C32.998 57.8396 33.024 57.8576 33.036 57.8836C33.0792 57.9941 33.1423 58.0958 33.222 58.1836C33.3433 58.319 33.4998 58.418 33.674 58.4696C33.694 58.4776 33.708 58.4956 33.728 58.4996H33.74L33.746 58.5016C33.9008 58.5349 34.0616 58.5266 34.212 58.4776C34.228 58.4736 34.244 58.4736 34.262 58.4676C34.4065 58.4169 34.5373 58.3334 34.644 58.2236C34.656 58.2096 34.676 58.2076 34.688 58.1956L40.714 51.5436L49.508 58.3536C50.042 58.7716 50.7 58.9976 51.378 58.9976C52.846 58.9976 54.112 57.9696 54.414 56.5356L60.938 24.4996C61.0487 23.9558 61.0097 23.3921 60.8251 22.8687C60.6405 22.3453 60.3174 21.8818 59.89 21.5276M35.176 46.5896L33.762 53.4636L30.812 43.7076L45.442 36.0876L35.448 46.0836C35.3096 46.2219 35.215 46.3979 35.176 46.5896ZM52.454 56.1336C52.4165 56.315 52.3329 56.4836 52.2114 56.6234C52.0899 56.7631 51.9344 56.8693 51.76 56.9316C51.5899 56.9971 51.4056 57.0172 51.2254 56.9898C51.0451 56.9624 50.8751 56.8886 50.732 56.7756L41.206 49.3976C41.0069 49.2439 40.7572 49.1709 40.5066 49.1931C40.256 49.2154 40.023 49.3312 39.854 49.5176L35.66 54.1396L37.072 47.2856L51.45 32.9056C51.6184 32.7367 51.7209 32.5131 51.7389 32.2753C51.7569 32.0375 51.6894 31.801 51.5484 31.6086C51.4074 31.4162 51.2023 31.2806 50.9701 31.2261C50.7379 31.1716 50.4939 31.202 50.282 31.3116L29.556 42.1076L21.722 39.3836C21.5143 39.315 21.3332 39.1834 21.2038 39.007C21.0744 38.8307 21.0032 38.6183 21 38.3996C20.9901 38.179 21.049 37.9607 21.1687 37.775C21.2884 37.5894 21.4629 37.4456 21.668 37.3636L57.496 22.8976C57.6796 22.8196 57.8814 22.7944 58.0785 22.8248C58.2757 22.8552 58.4605 22.94 58.612 23.0696C58.7628 23.1916 58.8766 23.3531 58.9409 23.536C59.0052 23.719 59.0174 23.9162 58.976 24.1056L52.454 56.1336Z" fill="white" fill-opacity="0.8"/>
<defs>
<linearGradient id="paint0_linear_557_1047" x1="1.15108" y1="40" x2="80.0819" y2="40.5036" gradientUnits="userSpaceOnUse">
<stop stop-color="#6687FC"/>
<stop offset="1" stop-color="#CA43AF"/>
</linearGradient>
</defs>
</svg>
