<svg width="80" height="80" viewBox="0 0 80 80" fill="none" xmlns="http://www.w3.org/2000/svg">
<rect x="0.5" y="0.5" width="79" height="79" rx="7.5" fill="white" fill-opacity="0.05" stroke="url(#paint0_linear_557_1048)"/>
<path d="M40 60C51.046 60 60 51.046 60 40C60 28.954 51.046 20 40 20C28.954 20 20 28.954 20 40C20 42.758 20.56 45.386 21.568 47.776C22.126 49.096 22.404 49.756 22.44 50.256C22.474 50.756 22.326 51.304 22.032 52.402L20 60L27.598 57.968C28.696 57.674 29.244 57.528 29.744 57.56C30.244 57.596 30.904 57.874 32.224 58.432C34.6853 59.4686 37.3293 60.0018 40 60Z" stroke="white" stroke-opacity="0.8" stroke-width="2" stroke-linecap="round" stroke-linejoin="round"/>
<path d="M33.176 40.754L34.918 38.592C35.652 37.68 36.558 36.832 36.632 35.616C36.648 35.31 36.432 33.934 36.002 31.18C35.832 30.098 34.82 30 33.946 30C32.806 30 32.236 30 31.67 30.26C30.954 30.586 30.22 31.504 30.058 32.274C29.93 32.884 30.026 33.304 30.216 34.144C31.02 37.71 32.91 41.232 35.838 44.162C38.768 47.09 42.29 48.98 45.858 49.784C46.698 49.974 47.116 50.07 47.726 49.942C48.496 49.782 49.414 49.046 49.742 48.33C50 47.764 50 47.194 50 46.054C50 45.178 49.902 44.168 48.82 43.998C46.066 43.566 44.69 43.352 44.384 43.368C43.17 43.44 42.32 44.348 41.408 45.082L39.246 46.822" stroke="white" stroke-opacity="0.8" stroke-width="2" stroke-linecap="round" stroke-linejoin="round"/>
<defs>
<linearGradient id="paint0_linear_557_1048" x1="1.15108" y1="40" x2="80.0819" y2="40.5036" gradientUnits="userSpaceOnUse">
<stop stop-color="#6687FC"/>
<stop offset="1" stop-color="#CA43AF"/>
</linearGradient>
</defs>
</svg>
